<?xml version="1.0" encoding="UTF-8"?>
<svg width="48" height="48" viewBox="0 0 48 48" fill="none" xmlns="http://www.w3.org/2000/svg">
  <rect width="48" height="48" rx="10" fill="url(#gradient)"/>
  <path d="M24 14C18.48 14 14 18.48 14 24C14 29.52 18.48 34 24 34C29.52 34 34 29.52 34 24C34 18.48 29.52 14 24 14ZM24 31C20.14 31 17 27.86 17 24C17 20.14 20.14 17 24 17C27.86 17 31 20.14 31 24C31 27.86 27.86 31 24 31Z" fill="white"/>
  <defs>
    <linearGradient id="gradient" x1="0" y1="0" x2="48" y2="48" gradientUnits="userSpaceOnUse">
      <stop stop-color="#FF006E"/>
      <stop offset="0.5" stop-color="#8338EC"/>
      <stop offset="1" stop-color="#3A86FF"/>
    </linearGradient>
  </defs>
</svg>
